<?xml version="1.0" encoding="UTF-8"?>
<svg width="64px" height="64px" viewBox="0 0 64 64" version="1.1" xmlns="http://www.w3.org/2000/svg" xmlns:xlink="http://www.w3.org/1999/xlink">
    <title>编组 8备份 2</title>
    <defs>
        <path d="M26.7865374,6.63711624 L44.5485506,37.8714488 C45.0227078,38.7052498 44.7311589,39.7655595 43.8973579,40.2397167 C43.6356899,40.3885194 43.3398392,40.4667571 43.0388203,40.4667571 L35.0234705,40.4667571 C34.7111979,40.4667571 34.422971,40.2990911 34.2686053,40.0276406 L25.2768071,24.2156483 C24.5655713,22.9649468 22.9751068,22.5276234 21.7244052,23.2388593 C21.3168442,23.4706268 20.9793837,23.8080873 20.7476162,24.2156483 L11.755818,40.0276406 C11.6014524,40.2990911 11.3132254,40.4667571 11.0009529,40.4667571 L2.98560306,40.4667571 C2.02641109,40.4667571 1.24883236,39.6891784 1.24883236,38.7299864 C1.24883236,38.4289675 1.32707012,38.1331168 1.47587275,37.8714488 L19.2378859,6.63711624 C20.423279,4.55261369 23.0740532,3.82374145 25.1585557,5.00913453 C25.8378241,5.39541375 26.4002582,5.95784788 26.7865374,6.63711624 Z" id="path-1"></path>
        <path d="M4.4257183,0 C6.86997502,0 8.8514366,1.97517819 8.8514366,4.41168397 C8.8514366,4.49047814 8.84936436,4.56878984 8.84527126,4.64656789 L0.00616534118,4.64656789 C0.00207223441,4.56878984 0,4.49047814 0,4.41168397 C0,1.97517819 1.98146158,0 4.4257183,0 Z" id="path-3"></path>
        <path d="M4.5324511,0.251679735 C2.42282377,0.750824442 0.853531386,2.64084891 0.853531386,4.89619158 L0.853531386,4.89619158 L0.290675803,4.89575526 C0.286582696,4.81797721 0.284510462,4.73966551 0.284510462,4.66087134 C0.284510462,2.2960275 2.15112954,0.365773394 4.49579871,0.254274748 Z" id="path-5"></path>
        <path d="M1.68178485,0.39123686 L2.33930824,0.316122736 L2.33930824,0.316122736 C4.3835686,0.105374245 6.00633198,0 7.20759837,0 C8.40886477,0 10.0316281,0.105374245 12.0758885,0.316122736 L12.7334119,0.39123686 C13.6916116,0.500699624 14.4151967,1.3116519 14.4151967,2.2760837 L14.4151967,2.2760837 L14.4151967,2.2760837 L0,2.2760837 C-1.18108831e-16,1.3116519 0.72358519,0.500699624 1.68178485,0.39123686 Z" id="path-7"></path>
    </defs>
    <g id="页面-1" stroke="none" stroke-width="1" fill="none" fill-rule="evenodd">
        <g id="编组-8备份-2">
            <circle id="椭圆形备份-3" fill="#BB0A00" cx="32" cy="32" r="32"></circle>
            <g id="编组-2备份-5" transform="translate(9.031208, 7.381275)">
                <g id="路径-2-+-路径-2备份-+-路径-2备份-2-+-路径-2备份-3-+-路径-2备份-4-+-路径-2备份-5-+-路径-2备份-6-蒙版">
                    <mask id="mask-2" fill="white">
                        <use xlink:href="#path-1"></use>
                    </mask>
                    <use id="蒙版" fill="#FFFFFF" xlink:href="#path-1"></use>
                    <path d="M23.6308224,8.68385346 C23.3356612,9.33621722 23.0136729,9.68378434 22.6648575,9.7265548 C22.6646866,9.72632577 22.9849195,9.82403263 23.2362515,10.0654523 C23.4526746,10.2733398 23.6037165,10.6067277 23.6219731,10.854775 C23.6253086,10.8619834 23.9144724,9.93612273 24.5752051,9.7265548 C24.5806119,9.72285615 24.3665751,9.68789361 24.0580634,9.35108388 C23.9689009,9.25374287 23.8264872,9.03133273 23.6308224,8.68385346 Z" id="路径-2" fill="#BB0A00" mask="url(#mask-2)"></path>
                    <path d="M19.1991278,12.7652646 C18.9844651,13.2349665 18.7502918,13.4852148 18.4966079,13.5160096 C18.4964836,13.5158446 18.7293802,13.5861936 18.9121671,13.7600157 C19.0695657,13.9096947 19.1794144,14.149734 19.1926919,14.3283281 C19.1951177,14.3335181 19.4054187,13.6668985 19.8859516,13.5160096 C19.8898838,13.5133465 19.7342206,13.4881735 19.5098485,13.2456705 C19.445003,13.175585 19.3414294,13.0154497 19.1991278,12.7652646 Z" id="路径-2备份" fill="#BB0A00" mask="url(#mask-2)"></path>
                    <path d="M26.6701711,13.9810041 C26.3750099,14.6333678 26.0530216,14.9809349 25.7042062,15.0237054 C25.7040353,15.0234764 26.0242682,15.1211832 26.2756002,15.3626029 C26.4920233,15.5704904 26.6430652,15.9038783 26.6613218,16.1519256 C26.6646573,16.159134 26.9538211,15.2332733 27.6145539,15.0237054 C27.6199606,15.0200068 27.4059238,14.9850442 27.0974122,14.6482345 C27.0082496,14.5508935 26.8658359,14.3284833 26.6701711,13.9810041 Z" id="路径-2备份-2" fill="#BB0A00" mask="url(#mask-2)"></path>
                    <path d="M32.7439863,24.4016282 C32.5829892,24.7669519 32.4073593,24.9615895 32.2170963,24.985541 C32.2170031,24.9854127 32.3916756,25.0401286 32.5287658,25.1753235 C32.6468147,25.2917405 32.7292012,25.4784378 32.7391594,25.6173443 C32.7409787,25.621381 32.8987045,25.102899 33.2591041,24.985541 C33.2620533,24.9834697 33.1453059,24.9638907 32.9770268,24.7752773 C32.9283927,24.7207663 32.8507125,24.5962166 32.7439863,24.4016282 Z" id="路径-2备份-3" fill="#BB0A00" mask="url(#mask-2)"></path>
                    <path d="M30.9662375,18.3229308 C30.7381583,18.8187273 30.4893492,19.0828783 30.21981,19.1153838 C30.219678,19.1152098 30.4671306,19.189467 30.6613417,19.3729459 C30.8285778,19.5309404 30.9452919,19.7843152 30.9593994,19.9728311 C30.9619767,19.9783095 31.1854215,19.2746554 31.6959877,19.1153838 C31.7001657,19.1125728 31.5347736,19.0860013 31.2963782,18.8300259 C31.2274799,18.7560468 31.117433,18.587015 30.9662375,18.3229308 Z" id="路径-2备份-4" fill="#BB0A00" mask="url(#mask-2)" transform="translate(30.957938, 19.147897) scale(-1, 1) translate(-30.957938, -19.147897) "></path>
                    <path d="M13.9010007,21.0149254 C13.7131708,21.4324382 13.5082692,21.6548811 13.2862958,21.6822542 C13.286187,21.6821076 13.4899716,21.74464 13.6499101,21.8991486 C13.7876339,22.0321966 13.8837515,22.2455649 13.8953694,22.4043151 C13.8974919,22.4089285 14.0815053,21.8163777 14.5019715,21.6822542 C14.5054122,21.6798871 14.3692069,21.6575111 14.1728814,21.4419528 C14.1161415,21.3796546 14.0255147,21.2373121 13.9010007,21.0149254 Z" id="路径-2备份-5" fill="#BB0A00" mask="url(#mask-2)"></path>
                    <path d="M16.2456412,24.5753053 C16.0578113,24.9928181 15.8529096,25.2152611 15.6309362,25.2426341 C15.6308275,25.2424876 15.834612,25.30502 15.9945506,25.4595285 C16.1322743,25.5925765 16.2283919,25.8059448 16.2400098,25.9646951 C16.2421323,25.9693084 16.4261457,25.3767576 16.846612,25.2426341 C16.8500527,25.240267 16.7138474,25.217891 16.5175218,25.0023328 C16.460782,24.9400345 16.3701551,24.797692 16.2456412,24.5753053 Z" id="路径-2备份-6" fill="#BB0A00" mask="url(#mask-2)"></path>
                </g>
                <g id="编组-5" transform="translate(15.804613, 15.023066)">
                    <g id="矩形" transform="translate(2.781880, 0.000000)">
                        <mask id="mask-4" fill="white">
                            <use xlink:href="#path-3"></use>
                        </mask>
                        <use id="蒙版" fill="#BB0A00" xlink:href="#path-3"></use>
                        <path d="M0.367342916,4.25792502 L0.839943655,4.20443238 L0.839943655,4.20443238 L8.01149294,4.20443238 L8.48409368,4.25792502 C9.40951974,4.36267195 10.1983663,4.97680094 10.5268871,5.84827061 L10.5268871,5.84827061 L10.5268871,5.84827061 L-1.6754505,5.84827061 C-1.3469297,4.97680094 -0.55808314,4.36267195 0.367342916,4.25792502 Z" fill="#FFFFFF" mask="url(#mask-4)"></path>
                        <mask id="mask-6" fill="white">
                            <use xlink:href="#path-5"></use>
                        </mask>
                        <use id="形状结合" fill="#FFFFFF" xlink:href="#path-5"></use>
                    </g>
                    <path d="M2.42751291,4.42464386 L2.97155371,4.36249375 L2.97155371,4.36249375 L11.443643,4.36249375 L11.9876838,4.42464386 C13.0893253,4.55049312 14.0272279,5.28373809 14.4151967,6.32245471 L14.4151967,6.32245471 L14.4151967,6.32245471 L0,6.32245471 C0.387968857,5.28373809 1.3258714,4.55049312 2.42751291,4.42464386 Z" id="矩形" fill="#BB0A00"></path>
                    <g id="形状结合-+-形状结合备份-+-形状结合-+-形状结合备份-2-蒙版" transform="translate(0.000000, 6.512128)">
                        <mask id="mask-8" fill="white">
                            <use xlink:href="#path-7"></use>
                        </mask>
                        <use id="蒙版" fill="#BB0A00" transform="translate(7.207598, 1.138042) scale(1, -1) translate(-7.207598, -1.138042) " xlink:href="#path-7"></use>
                        <polygon id="矩形" fill="#FFFFFF" mask="url(#mask-8)" points="6.67018972 0 7.52372111 0 7.20759837 2.2760837 6.98631246 2.2760837"></polygon>
                        <path d="M1.0748173,0 C1.0748173,1.06114104 1.86478823,1.95631194 2.91769032,2.08828734 L3.41412554,2.15051272 C5.33615064,2.36792392 6.88557804,2.4831295 8.06240774,2.49612947 L7.83984384,2.49736961 C6.63857745,2.49736961 5.01581407,2.38175065 2.97155371,2.15051272 L2.97155371,2.15051272 L2.47511849,2.08828734 C1.4222164,1.95631194 0.632245471,1.06114104 0.632245471,0 L0.632245471,0 L1.0748173,0 Z" id="形状结合" fill="#FFFFFF" mask="url(#mask-8)"></path>
                        <path d="M2.52898188,0 C2.52898188,1.06114104 3.31895282,1.95631194 4.3718549,2.08828734 L4.86829013,2.15051272 C6.79031522,2.36792392 8.33974262,2.4831295 9.51657233,2.49612947 L9.29400843,2.49736961 C8.09274203,2.49736961 6.46997866,2.38175065 4.4257183,2.15051272 L4.4257183,2.15051272 L3.92928307,2.08828734 C2.87638099,1.95631194 2.08641005,1.06114104 2.08641005,0 L2.08641005,0 L2.52898188,0 Z" id="形状结合备份" fill="#FFFFFF" mask="url(#mask-8)"></path>
                        <path d="M6.79536083,0 C6.79536083,1.06114104 7.58533176,1.95631194 8.63823385,2.08828734 L9.13466907,2.15051272 C11.0566942,2.36792392 12.6061216,2.4831295 13.7829513,2.49612947 L13.5603874,2.49736961 C12.359121,2.49736961 10.7363576,2.38175065 8.69209724,2.15051272 L8.69209724,2.15051272 L8.19566202,2.08828734 C7.14275993,1.95631194 6.352789,1.06114104 6.352789,0 L6.352789,0 L6.79536083,0 Z" id="形状结合" fill="#FFFFFF" mask="url(#mask-8)" transform="translate(10.067870, 1.248685) scale(-1, 1) translate(-10.067870, -1.248685) "></path>
                        <path d="M5.02507351,0 C5.02507351,1.06114104 5.81504444,1.95631194 6.86794653,2.08828734 L7.36438175,2.15051272 C9.28640685,2.36792392 10.8358342,2.4831295 12.012664,2.49612947 L11.7901001,2.49736961 C10.5888337,2.49736961 8.96607028,2.38175065 6.92180992,2.15051272 L6.92180992,2.15051272 L6.4253747,2.08828734 C5.37247261,1.95631194 4.58250168,1.06114104 4.58250168,0 L4.58250168,0 L5.02507351,0 Z" id="形状结合备份-2" fill="#FFFFFF" mask="url(#mask-8)" transform="translate(8.297583, 1.248685) scale(-1, 1) translate(-8.297583, -1.248685) "></path>
                    </g>
                </g>
            </g>
            <path d="M22.3047908,47.8080036 C22.5838241,47.9415454 22.9843835,47.7846337 23.4915899,47.3372685 C23.8415105,46.9900596 24.1431264,46.6194809 24.3995184,46.2255324 C24.8904717,45.4443124 25.2364304,44.6831238 25.4571417,43.9419664 C25.5377013,43.6348201 25.6075224,43.2208403 25.6764868,42.700027 C25.6926604,42.5931935 25.7181499,42.5397768 25.7524379,42.5397768 L26.086746,42.5397768 C26.1283815,42.5397768 26.1801358,42.4763444 26.2420089,42.3494796 L26.9307546,40.9372743 C26.9926277,40.8104095 27.0352339,40.6868833 27.0591918,40.5666956 L27.1307532,40.2461951 C27.157691,40.1260074 27.1548958,40.0659136 27.1217492,40.0659136 L26.2150917,40.0659136 C26.1838949,40.0659136 26.1235973,40.1326845 26.0340372,40.2662264 C25.2440668,41.448072 24.4401682,42.6332561 23.6230005,43.8217787 C23.5391571,43.9419664 23.4813543,44.0621541 23.4502834,44.1823418 L23.3660087,44.5429048 C23.3417225,44.6430612 23.3075435,44.696478 23.2630494,44.7031551 L23.0304334,44.7632489 C22.9684918,44.7832802 22.9037109,44.8533897 22.836303,44.9735774 C22.6283378,45.3207862 22.4570743,45.6546409 22.324227,45.9751414 C22.2136734,46.2489022 22.1207116,46.6728977 22.0585447,47.2471277 C22.0443063,47.5743053 22.1278317,47.7612639 22.3047908,47.8080036 Z M22.7661152,46.9767054 C22.4547775,47.0234451 22.2934159,46.8798876 22.2895003,46.5460329 C22.2900559,46.3590743 22.3455468,46.1287145 22.4555666,45.8549537 C22.5537908,45.6279325 22.6758707,45.3842186 22.8213171,45.123812 C22.8909255,45.0036243 22.9490291,44.9368533 22.9955024,44.9234991 C23.176593,44.8767595 23.3546863,44.8333584 23.5298875,44.7932958 C23.5860975,44.7866187 23.586198,44.8333584 23.5302558,44.9335148 C23.2606628,45.4543281 23.2303176,45.7013805 23.4368266,45.6746722 C23.5626775,45.6479638 23.7394927,45.4810365 23.9657966,45.1738902 C24.2195729,44.80665 24.4370756,44.4127015 24.6223441,43.9920446 C24.6820946,43.8384714 24.7095513,43.7249609 24.7046739,43.6515128 C24.6790925,43.4512 24.4971561,43.5246481 24.1500341,43.8718569 C24.0528142,43.9720133 23.9873435,44.0154144 23.954107,44.0020602 L23.7157391,43.8818726 C23.6819808,43.8618413 23.7005011,43.8017474 23.771106,43.701591 C24.5225244,42.5998706 25.2666654,41.4948116 26.0028053,40.3864141 C26.0696438,40.2862577 26.1159147,40.2361795 26.1417089,40.2361795 L26.9958935,40.2361795 C27.0236719,40.2361795 27.0119397,40.2862577 26.9606968,40.3864141 L26.3816527,41.5181814 C26.3304098,41.6183378 26.2888756,41.668416 26.2570499,41.668416 L25.6466791,41.668416 C25.6103069,41.668416 25.5453188,41.7418641 25.451537,41.8887601 L25.2490225,42.2092606 C25.1723781,42.3294483 25.1641901,42.3728494 25.2243958,42.3394639 C25.3307506,42.2793701 25.413214,42.2626774 25.4725825,42.2893857 C25.549025,42.3294483 25.5899955,42.4028963 25.5958376,42.5097298 C25.5958856,42.7901678 25.5279707,43.1240224 25.3896951,43.5112939 C25.0882437,44.3459306 24.6713154,45.1371661 24.1146589,45.8850006 C23.5585201,46.5860954 23.1050216,46.949997 22.7661152,46.9767054 Z M22.4640063,46.6061267 C22.5858297,46.8197937 22.8126485,46.8465021 23.136166,46.6862518 C23.4408217,46.55271 23.8361682,46.1487458 24.3165004,45.4743594 C24.6496171,44.9869315 24.9290217,44.4627797 25.162073,43.9019038 C25.2880443,43.5880804 25.3689784,43.3443665 25.404744,43.1707621 C25.4755138,42.8903242 25.4889866,42.6933499 25.4440931,42.5798393 C25.3641406,42.4062349 25.1738993,42.4529745 24.8644901,42.7200583 C24.859519,42.7200583 24.8888299,42.6699801 24.9523621,42.5698237 L25.5273329,41.668416 C25.6099888,41.5415513 25.6657664,41.4781189 25.6948195,41.4781189 L26.2848202,41.4781189 C26.3228126,41.4781189 26.3728821,41.418025 26.4350285,41.2978374 L26.7871915,40.6167738 C26.8493379,40.4965861 26.863202,40.4364923 26.8287838,40.4364923 L26.0756321,40.4364923 C26.0432385,40.4364923 25.9857893,40.4999247 25.9031694,40.6267895 C25.2628338,41.594968 24.6172273,42.559808 23.9669825,43.5213095 C23.8888681,43.6348201 23.8690593,43.701591 23.9077744,43.7216223 L24.0410407,43.7817162 C24.0791191,43.8084245 24.1501961,43.768362 24.2536251,43.6615285 C24.621072,43.3076425 24.8131605,43.2442101 24.8404818,43.4712313 C24.8416327,43.6381586 24.7593362,43.8885497 24.5923288,44.2224043 C24.3985487,44.6230299 24.1791937,44.9969472 23.9311909,45.344156 C23.6734795,45.6646565 23.4829777,45.838261 23.3620305,45.8649693 C23.2205916,45.9050319 23.1524241,45.8415995 23.1594543,45.6746722 C23.1828019,45.5144219 23.2407101,45.344156 23.3323359,45.1638745 C23.3906509,45.0503639 23.387917,45.0002857 23.3239541,45.0136399 C23.217484,45.0336712 23.1081514,45.0603796 22.9958371,45.093765 C22.9371445,45.1071192 22.8763024,45.1738902 22.813525,45.2940778 C22.497297,45.8883392 22.3796027,46.3256888 22.4640063,46.6061267 Z M23.5865449,45.4743594 C23.5706157,45.4810365 23.5818417,45.447651 23.6202531,45.374203 C23.651917,45.307432 23.6786011,45.2072756 23.7009925,45.0737338 C23.7205217,44.946869 23.7404011,44.8867751 23.7599555,44.8934522 C23.7804251,44.8934522 23.8463849,44.8366969 23.957285,44.7231863 C24.0541916,44.6230299 24.1312724,44.5495819 24.1887963,44.5028423 L24.2593122,44.4527641 C24.3194357,44.4260557 24.3200008,44.4661182 24.2611367,44.5729517 C24.0661497,44.9268377 23.9050447,45.1705516 23.777094,45.3040935 C23.678275,45.410927 23.6146238,45.4676823 23.5865449,45.4743594 Z M26.4577036,47.7378941 C26.5136775,47.7378941 26.5618862,47.6744617 26.6023297,47.5475969 L28.7479624,40.8170866 C28.7862773,40.6968989 28.8092386,40.5733727 28.817461,40.4465079 L28.8328997,40.1260074 C28.839948,40.0058198 28.8274144,39.9457259 28.7946802,39.9457259 L28.4885191,39.9457259 C28.4577104,39.9457259 28.4114207,40.0091583 28.3493809,40.1360231 C28.0166155,40.8037324 27.661456,41.2978374 27.2806111,41.6183378 C27.2214255,41.6717546 27.1657593,41.7585568 27.1138712,41.8787445 L26.5085101,43.2809341 C26.456622,43.4011218 26.4244761,43.5246481 26.4126869,43.6515128 L26.3989498,43.9920446 C26.3958373,44.0988781 26.4332372,44.1255865 26.5103409,44.0721697 L26.7431535,43.9119195 C26.81037,43.8585027 26.8256574,43.878534 26.7892907,43.9720133 L25.6632215,46.8665334 C25.6164644,46.9867211 25.5983607,47.1069087 25.6095293,47.2270964 L25.6384373,47.5576126 C25.6526565,47.6778002 25.6880623,47.7378941 25.7440362,47.7378941 L26.4577036,47.7378941 Z M25.808928,46.876549 C25.7657094,46.876549 25.7633245,46.8264708 25.8017733,46.7263144 L27.3935542,42.5798393 C27.4422561,42.4529745 27.4292382,42.4362818 27.3540477,42.5297611 C27.1044944,42.8235532 26.8828976,43.0305431 26.6920592,43.1507308 C26.6284552,43.1974705 26.6193355,43.1674235 26.6649407,43.0605901 L27.1352445,41.9588696 C27.1751491,41.8653903 27.2211696,41.7952808 27.2731079,41.7485412 C27.4026771,41.6350306 27.5431032,41.4881345 27.6937129,41.307853 C27.9293313,41.0140609 28.1421833,40.6701906 28.3346562,40.276242 C28.3843611,40.1760856 28.4218751,40.1260074 28.4473802,40.1260074 L28.6945835,40.1260074 C28.7220506,40.1260074 28.7186217,40.1760856 28.6842971,40.276242 L26.4737871,46.7263144 C26.4394624,46.8264708 26.3990285,46.876549 26.3524853,46.876549 L25.808928,46.876549 Z M26.3185354,46.6762362 C26.3743647,46.6762362 26.4232016,46.6161424 26.4650463,46.4959547 L28.553791,40.4965861 C28.5956356,40.3763984 28.599555,40.3163046 28.5655492,40.3163046 L28.4215246,40.3163046 C28.3895191,40.3163046 28.3370752,40.3897526 28.2637924,40.5366487 C28.1109893,40.8371179 27.927257,41.1275715 27.7101634,41.4080094 C27.5570828,41.594968 27.4198552,41.7452026 27.2993622,41.8587132 C27.2376439,41.91213 27.1799149,42.0022707 27.1264501,42.1291355 L26.8605331,42.7601208 C26.8070683,42.8869856 26.8130681,42.9237096 26.8782575,42.8702929 C27.0788549,42.7167197 27.3104458,42.4696673 27.5701233,42.1291355 C27.6560394,42.0089478 27.6784733,42.0022707 27.6380434,42.1091042 L25.9778932,46.4959547 C25.9324096,46.6161424 25.9359404,46.6762362 25.9884856,46.6762362 L26.3185354,46.6762362 Z M28.5179643,47.51755 C28.7294604,47.8380505 29.0234392,47.9281912 29.3881166,47.7879723 C29.6939949,47.6811388 29.9617076,47.3506227 30.1860531,46.7964239 C30.3216669,46.4024754 30.4221566,45.911709 30.4905062,45.3241248 L30.9635902,40.8471335 C30.976996,40.7202688 30.972565,40.5967425 30.9509157,40.4765549 L30.9008249,40.1560544 C30.8821555,40.0358667 30.8567115,39.9757728 30.8238742,39.9757728 L30.4211342,39.9757728 C30.3902285,39.9757728 30.3635595,40.0392052 30.3411271,40.16607 L29.5548128,44.6130143 C29.4928452,44.946869 29.4326865,45.1772287 29.3739767,45.3040935 C29.340178,45.3575102 29.3323873,45.3341404 29.3507339,45.233984 L29.3719721,45.093765 C29.3923105,44.9669003 29.3887733,44.843374 29.3619406,44.7231863 L29.2953609,44.4026859 C29.2743453,44.2824982 29.2390581,44.2290814 29.1888482,44.2424356 L28.5886813,44.4327328 C28.5315252,44.446087 28.4890851,44.5128579 28.4614743,44.6330456 C28.3459916,45.1004421 28.2721227,45.4943906 28.2412788,45.8148911 C28.2162212,46.0686207 28.2189106,46.3123346 28.2503355,46.5460329 L28.413811,47.2571433 C28.4554357,47.3973623 28.490417,47.4841645 28.5179643,47.51755 Z M29.3440584,46.8465021 C29.0232412,47.0401378 28.7388464,47.0267836 28.5015867,46.8064395 C28.4013401,46.6929289 28.3402791,46.5093089 28.3190182,46.2555793 C28.3048168,46.0485894 28.3152539,45.8048755 28.3500103,45.5244376 C28.3811909,45.3241248 28.4287284,45.0837494 28.4924289,44.8033115 C28.5193868,44.6831238 28.5562721,44.6096758 28.6029352,44.5829674 L29.0791838,44.4427484 C29.1301457,44.4293942 29.1473036,44.4694568 29.1307545,44.5629361 C29.0718329,44.9034679 29.0408235,45.1471818 29.0377142,45.2940778 C29.0429005,45.447651 29.0690655,45.5377918 29.1157886,45.5645001 C29.2195692,45.6312711 29.32143,45.5778543 29.4194466,45.4042499 C29.4896635,45.2439996 29.5540882,45.0002857 29.613301,44.6731081 L30.39013,40.1560544 L30.4331379,40.1460387 L30.7634215,40.1460387 C30.7909452,40.1460387 30.7982174,40.1961169 30.7852382,40.2962733 L30.2232403,44.6330456 C30.1744375,44.9869315 30.1087188,45.3308019 30.0248772,45.6646565 C29.8681343,46.2388866 29.641471,46.6328351 29.3440584,46.8465021 Z M28.6841447,46.7162988 C28.8448648,46.803101 29.0068261,46.8131166 29.1676998,46.7463457 C29.3798979,46.699606 29.5860469,46.4826005 29.7819821,46.0953291 C29.9375244,45.7280889 30.0581173,45.2373225 30.1470579,44.6230299 L30.7002307,40.5266331 C30.7164607,40.4064454 30.7075212,40.3463515 30.6734123,40.3463515 L30.45973,40.3463515 C30.4276275,40.3463515 30.401013,40.4097839 30.3798866,40.5366487 L29.6893864,44.6831238 C29.6327548,44.9702388 29.586234,45.1772287 29.5498928,45.3040935 C29.4996418,45.4576666 29.4423937,45.5778543 29.3780998,45.6646565 C29.2743218,45.7781671 29.1734157,45.8115526 29.0767908,45.7648129 C29.0236372,45.7514587 28.9859941,45.6846878 28.9643347,45.5645001 C28.933096,45.3775415 28.948437,45.1338276 29.0091465,44.8333584 C29.0302615,44.7064936 29.0150005,44.6497383 28.9632178,44.6630925 L28.6568981,44.7532333 C28.6057376,44.7732645 28.5655348,44.843374 28.5363865,44.9635617 C28.458425,45.2974164 28.4159395,45.6312711 28.411255,45.9651257 C28.4171603,46.3791055 28.5089437,46.6294965 28.6841447,46.7162988 Z M32.1975285,47.7378941 C32.2604992,47.7378941 32.3016628,47.6778002 32.320801,47.5576126 L32.4891484,46.4558921 C32.5052784,46.3357044 32.5356568,46.2756106 32.5805017,46.2756106 L33.2003232,46.2756106 C33.2451681,46.2756106 33.2794129,46.3256888 33.303209,46.4258452 C33.3460241,46.5994496 33.3911217,46.7730541 33.4385545,46.9466585 C33.454148,47.0134294 33.4973522,47.1069087 33.5687613,47.2270964 L33.7592537,47.5576126 C33.8303789,47.6778002 33.8977361,47.7378941 33.9607068,47.7378941 L34.8213057,47.7378941 C34.880778,47.7378941 34.8901958,47.6778002 34.8497775,47.5576126 L32.9440654,40.7569928 C32.9327413,40.6968989 32.9035378,40.6067582 32.8570554,40.4865705 L32.7396358,40.1560544 C32.6963556,40.0358667 32.6586243,39.9757728 32.625787,39.9757728 L32.2346367,39.9757728 C32.2017994,39.9757728 32.1793607,40.0392052 32.1670518,40.16607 L31.0098163,46.8665334 C30.9820175,46.9867211 30.9924793,47.1102473 31.0420733,47.2371121 L31.1783475,47.5576126 C31.2348734,47.6778002 31.2932,47.7378941 31.3526723,47.7378941 L32.1975285,47.7378941 Z M31.1637628,46.876549 C31.1172197,46.876549 31.1088965,46.8197937 31.1385526,46.7062831 L32.2073158,40.2962733 C32.2177502,40.1961169 32.2356553,40.1460387 32.261213,40.1460387 L32.6091904,40.1460387 C32.6367141,40.1460387 32.6603927,40.1961169 32.6804386,40.2962733 L34.264773,46.6862518 C34.3050822,46.8131166 34.3004374,46.876549 34.2505698,46.876549 L33.5773566,46.876549 C33.5308135,46.876549 33.4945853,46.8231323 33.4688338,46.7162988 L33.1884691,45.594547 C33.161345,45.4743594 33.120628,45.4142655 33.0660997,45.4142655 L32.2163666,45.4142655 C32.1618383,45.4142655 32.1257207,45.4743594 32.1077955,45.594547 C32.049127,45.9617872 31.989265,46.3256888 31.928357,46.6862518 C31.9074073,46.8131166 31.8718833,46.876549 31.8220157,46.876549 L31.1637628,46.876549 Z M31.746176,46.6762362 C31.8052894,46.6762362 31.845519,46.6161424 31.8666465,46.4959547 L32.04825,45.4042499 C32.0664181,45.2773851 32.0963093,45.2139527 32.1381541,45.2139527 L33.1289807,45.2139527 C33.1708256,45.2139527 33.203305,45.2673695 33.2265807,45.374203 C33.3205824,45.7481202 33.4145818,46.1220374 33.5083525,46.4959547 C33.5387516,46.6161424 33.583617,46.6762362 33.6427304,46.6762362 L34.0762285,46.6762362 C34.1320578,46.6762362 34.1374467,46.6027882 34.0927509,46.4558921 L32.6579589,40.5266331 C32.6368098,40.4064454 32.6093082,40.3463515 32.5751993,40.3463515 L32.3163728,40.3463515 C32.2802575,40.3463515 32.255558,40.4197996 32.2419186,40.5666956 L31.2869343,46.4959547 C31.2582045,46.6161424 31.273269,46.6762362 31.3323823,46.6762362 L31.746176,46.6762362 Z M32.2717234,44.2424356 C32.2298311,44.2424356 32.2152918,44.1890189 32.2279439,44.0821854 L32.4769973,41.7986194 C32.4868194,41.6917859 32.4990925,41.6851088 32.514152,41.7785881 L32.9340962,44.0521384 C32.9616186,44.1790032 32.954568,44.2424356 32.9126757,44.2424356 L32.2717234,44.2424356 Z M32.7848307,44.0421228 C32.8288689,44.0421228 32.8359042,43.9720133 32.8062761,43.8317944 L32.5369981,42.3594952 C32.5208406,42.2526617 32.506989,42.2660159 32.4949986,42.3995578 L32.339421,43.8618413 C32.3254138,43.982029 32.3416962,44.0421228 32.3884868,44.0421228 L32.7848307,44.0421228 Z M37.5232964,47.7378941 C37.5862671,47.7378941 37.6089648,47.6778002 37.5911713,47.5576126 C37.1995716,45.3141091 36.710848,43.0739442 36.1245456,40.8371179 C36.0902799,40.7169302 36.0320681,40.5967425 35.9507473,40.4765549 L35.7385802,40.1560544 C35.6583319,40.0358667 35.6021166,39.9757728 35.5692793,39.9757728 L35.114386,39.9757728 C35.0815487,39.9757728 35.0802146,40.0425438 35.1101411,40.1760856 C35.3199314,41.1776497 35.5130947,42.1792137 35.6902376,43.1807777 C35.7068246,43.2942883 35.6938174,43.2942883 35.6515597,43.1807777 L34.7332469,40.7569928 C34.7115354,40.6968989 34.6677802,40.6067582 34.6025455,40.4865705 L34.427895,40.1560544 C34.3657473,40.0358667 34.3185641,39.9757728 34.2857268,39.9757728 L33.8163465,39.9757728 C33.7854408,39.9757728 33.7908451,40.0492209 33.8329152,40.1961169 L36.1574167,46.9466585 C36.1839858,47.0134294 36.2425557,47.1069087 36.3337208,47.2270964 L36.5785421,47.5576126 C36.6694232,47.6778002 36.7449092,47.7378941 36.8043815,47.7378941 L37.5232964,47.7378941 Z M36.2946681,46.876549 C36.248125,46.876549 36.202268,46.8264708 36.157279,46.7263144 L33.9108715,40.2962733 C33.8842934,40.1961169 33.8838438,40.1460387 33.9094015,40.1460387 L34.2986643,40.1460387 C34.326188,40.1460387 34.356577,40.1961169 34.3899831,40.2962733 L35.9121813,44.4427484 C35.9622515,44.5629361 35.9770454,44.5595976 35.9561529,44.4327328 L35.1991431,40.3363359 C35.1690204,40.2094711 35.1686079,40.1460387 35.1980975,40.1460387 L35.5726156,40.1460387 C35.6001392,40.1460387 35.6274237,40.1994555 35.6542749,40.306289 C36.168696,42.4362818 36.5937618,44.5629361 36.9309725,46.6862518 C36.9490062,46.8131166 36.9346362,46.876549 36.8880931,46.876549 L36.2946681,46.876549 Z M36.7506399,46.6762362 C36.8064692,46.6762362 36.8243044,46.6027882 36.8038341,46.4558921 C36.4960563,44.4794724 36.1133268,42.5030527 35.6544489,40.5266331 C35.6239555,40.4064454 35.5915452,40.3463515 35.5574363,40.3463515 L35.3106482,40.3463515 C35.2765393,40.3463515 35.2748707,40.4131225 35.3053996,40.5466643 L36.1575991,45.2239684 C36.1534578,45.2306455 36.1301334,45.1839058 36.0877816,45.0837494 L34.4042577,40.5266331 C34.3664073,40.4064454 34.3305186,40.3463515 34.2964096,40.3463515 L34.0345736,40.3463515 C34.002471,40.3463515 34.0066668,40.4197996 34.0474278,40.5666956 L36.1580015,46.4959547 C36.2081929,46.6161424 36.2613125,46.6762362 36.3171418,46.6762362 L36.7506399,46.6762362 Z M40.3617236,47.7378941 C40.4246942,47.7378941 40.4375504,47.6778002 40.4000737,47.5576126 L40.0494514,46.4558921 C40.0089666,46.3357044 40.0110375,46.2756106 40.0558824,46.2756106 L40.6757039,46.2756106 C40.7205488,46.2756106 40.7783831,46.3256888 40.8493583,46.4258452 C40.9739504,46.5994496 41.1008251,46.7730541 41.2300349,46.9466585 C41.2770812,47.0134294 41.3643191,47.1069087 41.4923431,47.2270964 L41.8385265,47.5576126 C41.9662665,47.6778002 42.0619312,47.7378941 42.1249018,47.7378941 L42.9855007,47.7378941 C43.044973,47.7378941 43.0260834,47.6778002 42.9290502,47.5576126 L37.8198796,40.7569928 C37.7802481,40.6968989 37.7085835,40.6067582 37.6054861,40.4865705 L37.3323757,40.1560544 C37.2324806,40.0358667 37.1664419,39.9757728 37.1336046,39.9757728 L36.7424543,39.9757728 C36.709617,39.9757728 36.7170584,40.0392052 36.7645096,40.16607 L38.7635535,46.8665334 C38.7923695,46.9867211 38.8610189,47.1102473 38.970373,47.2371121 L39.2576202,47.5576126 C39.370761,47.6778002 39.457395,47.7378941 39.5168673,47.7378941 L40.3617236,47.7378941 Z M38.9222179,46.876549 C38.8756748,46.876549 38.8406167,46.8197937 38.8168032,46.7062831 L36.8661064,40.2962733 C36.8293617,40.1961169 36.8236773,40.1460387 36.849235,40.1460387 L37.1972124,40.1460387 C37.224736,40.1460387 37.2720042,40.1961169 37.3392291,40.2962733 L41.9335879,46.6862518 C42.0336572,46.8131166 42.0588925,46.876549 42.0090249,46.876549 L41.3358117,46.876549 C41.2892686,46.876549 41.2278782,46.8231323 41.1518024,46.7162988 L40.3430321,45.594547 C40.2592932,45.4743594 40.1902687,45.4142655 40.1357404,45.4142655 L39.2860073,45.4142655 C39.231479,45.4142655 39.2236688,45.4743594 39.2623585,45.594547 C39.3766799,45.9617872 39.4882352,46.3256888 39.5971719,46.6862518 C39.6359823,46.8131166 39.6303384,46.876549 39.5804707,46.876549 L38.9222179,46.876549 Z M39.410273,46.6762362 C39.4693863,46.6762362 39.4813085,46.6161424 39.4458211,46.4959547 L39.1131729,45.4042499 C39.0715807,45.2773851 39.0715919,45.2139527 39.1134367,45.2139527 L40.1042633,45.2139527 C40.1461082,45.2139527 40.2037498,45.2673695 40.2773498,45.374203 C40.5474867,45.7481202 40.8176213,46.1220374 41.0875271,46.4959547 C41.1745411,46.6161424 41.2477139,46.6762362 41.3068273,46.6762362 L41.7403254,46.6762362 C41.7961547,46.6762362 41.7669456,46.6027882 41.6530539,46.4558921 L37.4252613,40.5266331 C37.3474974,40.4064454 37.2916883,40.3463515 37.2575794,40.3463515 L36.9987529,40.3463515 C36.9626376,40.3463515 36.9725361,40.4197996 37.0280926,40.5666956 L38.8661089,46.4959547 C38.893994,46.6161424 38.9373659,46.6762362 38.9964793,46.6762362 L39.410273,46.6762362 Z M38.789369,44.2424356 C38.7474767,44.2424356 38.7077753,44.1890189 38.6701031,44.0821854 L37.8434739,41.7986194 C37.8029716,41.6917859 37.8120994,41.6851088 37.8711927,41.7785881 L39.3621016,44.0521384 C39.4493842,44.1790032 39.4722137,44.2424356 39.4303214,44.2424356 L38.789369,44.2424356 Z M39.2081183,44.0421228 C39.2521565,44.0421228 39.2261664,43.9720133 39.1304876,43.8317944 L38.1676774,42.3594952 C38.1011955,42.2526617 38.0936345,42.2660159 38.1445495,42.3995578 L38.6777863,43.8618413 C38.7203939,43.982029 38.7649838,44.0421228 38.8117744,44.0421228 L39.2081183,44.0421228 Z" id="51JAVA" fill="#FFFFFF" fill-rule="nonzero"></path>
        </g>
    </g>
</svg>